<?xml version="1.0" encoding="UTF-8" standalone="no"?>
<!-- Created with Inkscape (http://www.inkscape.org/) -->

<svg
   xmlns:dc="http://purl.org/dc/elements/1.1/"
   xmlns:cc="http://creativecommons.org/ns#"
   xmlns:rdf="http://www.w3.org/1999/02/22-rdf-syntax-ns#"
   xmlns:svg="http://www.w3.org/2000/svg"
   xmlns="http://www.w3.org/2000/svg"
   xmlns:sodipodi="http://sodipodi.sourceforge.net/DTD/sodipodi-0.dtd"
   xmlns:inkscape="http://www.inkscape.org/namespaces/inkscape"
   width="30"
   height="30"
   id="svg3025"
   version="1.1"
   inkscape:version="0.48.1 r9760"
   sodipodi:docname="blue_pulse.svg">
  <defs
     id="defs3027" />
  <sodipodi:namedview
     id="base"
     pagecolor="#ffffff"
     bordercolor="#666666"
     borderopacity="1.0"
     inkscape:pageopacity="0.0"
     inkscape:pageshadow="2"
     inkscape:zoom="7.28"
     inkscape:cx="30"
     inkscape:cy="45.992236"
     inkscape:document-units="px"
     inkscape:current-layer="layer1"
     showgrid="false"
     inkscape:window-width="1600"
     inkscape:window-height="876"
     inkscape:window-x="0"
     inkscape:window-y="24"
     inkscape:window-maximized="1" />
  <metadata
     id="metadata3030">
    <rdf:RDF>
      <cc:Work
         rdf:about="">
        <dc:format>image/svg+xml</dc:format>
        <dc:type
           rdf:resource="http://purl.org/dc/dcmitype/StillImage" />
        <dc:title />
      </cc:Work>
    </rdf:RDF>
  </metadata>
  <g
     inkscape:label="Layer 1"
     inkscape:groupmode="layer"
     id="layer1"
     transform="translate(0,-1022.3622)">
    <path
       style="fill:#0000ff;stroke:#000000;stroke-width:0.01412471px;stroke-linecap:butt;stroke-linejoin:miter;stroke-opacity:1"
       d="m 0.12287878,1038.6033 c 0.60573696,-1.9438 0.92232882,-1.5004 1.99124162,0 0.5699847,3.6381 1.001249,3.8438 2.0623733,0 1.242238,-7.3969 1.7155703,-4.0089 2.0977428,-0.1225 0.5150134,7.8233 1.5769379,8.2257 2.1684795,0.1225 1.3212868,-17.3001 1.987927,-8.9068 2.53088,0 0.551768,10.8988 1.295828,24.8626 2.421605,0 0.983748,-24.8345 1.859273,-17.7942 2.458166,-0.061 0.417371,8.7118 1.293695,16.2437 2.385044,0.061 0.613024,-6.9951 1.367533,-11.4838 2.458167,-0.1225 0.634055,3.3485 1.100279,10.1607 2.278149,0 1.099062,-7.5586 1.351502,-1.6198 1.918527,0.1225 1.170007,5.2902 1.355546,0.6966 1.760764,0 0.798118,-2.3873 0.913807,-2.086 1.695676,0 0.56804,0.4886 0.821467,1.4121 1.760633,0.064 z"
       id="path3039"
       inkscape:connector-curvature="0"
       sodipodi:nodetypes="cccccccccccccccc" />
  </g>
</svg>
