<?xml version="1.0" encoding="UTF-8" standalone="no"?>
<!-- Created with Inkscape (http://www.inkscape.org/) -->

<svg
   xmlns:dc="http://purl.org/dc/elements/1.1/"
   xmlns:cc="http://creativecommons.org/ns#"
   xmlns:rdf="http://www.w3.org/1999/02/22-rdf-syntax-ns#"
   xmlns:svg="http://www.w3.org/2000/svg"
   xmlns="http://www.w3.org/2000/svg"
   xmlns:sodipodi="http://sodipodi.sourceforge.net/DTD/sodipodi-0.dtd"
   xmlns:inkscape="http://www.inkscape.org/namespaces/inkscape"
   width="70"
   height="40"
   id="svg3039"
   version="1.1"
   inkscape:version="0.48.1 r9760"
   sodipodi:docname="red_pulse_1.svg">
  <defs
     id="defs3041" />
  <sodipodi:namedview
     id="base"
     pagecolor="#ffffff"
     bordercolor="#666666"
     borderopacity="1.0"
     inkscape:pageopacity="0.0"
     inkscape:pageshadow="2"
     inkscape:zoom="14.56"
     inkscape:cx="25"
     inkscape:cy="25"
     inkscape:document-units="px"
     inkscape:current-layer="layer1"
     showgrid="false"
     inkscape:window-width="1600"
     inkscape:window-height="876"
     inkscape:window-x="0"
     inkscape:window-y="24"
     inkscape:window-maximized="1" />
  <metadata
     id="metadata3044">
    <rdf:RDF>
      <cc:Work
         rdf:about="">
        <dc:format>image/svg+xml</dc:format>
        <dc:type
           rdf:resource="http://purl.org/dc/dcmitype/StillImage" />
        <dc:title></dc:title>
      </cc:Work>
    </rdf:RDF>
  </metadata>
  <g
     inkscape:label="Layer 1"
     inkscape:groupmode="layer"
     id="layer1"
     transform="translate(0,-1012.3622)">
    <path
       style="fill:#ff0000;stroke:#000000;stroke-width:0.02381435px;stroke-linecap:butt;stroke-linejoin:miter;stroke-opacity:1"
       d="m 0.09876263,1035.3877 c 0.79411736,-2.4188 1.76654377,-2.13 2.25177977,0 0.6419112,4.4831 1.7695271,4.6332 2.6080168,-2e-4 1.5774185,-8.862 2.1795371,-4.6837 3.0711273,0.051 1.2014953,9.5325 2.1083355,9.9221 3.4883565,0.049 2.039219,-21.2307 3.371735,-10.9031 4.156898,-0.05 1.287233,13.2798 1.858579,30.2944 4.484948,0 2.421995,-36.57487 2.817365,-24.0529 4.165846,-0.024 1.088294,10.913 2.045814,21.1839 4.035505,0.02 1.492943,-9.5782 2.527784,-15.7581 4.313368,-0.055 0.756956,6.0442 1.696407,14.9717 3.962796,0.055 1.479508,-12.1228 2.936817,-3.819 3.593745,-0.047 1.510031,9.7817 2.869987,2.8977 3.580695,0.05 1.51641,-4.5121 1.709229,-5.1962 4.092547,-0.059 0.484681,0.7226 1.817614,6.6507 3.447592,0.084 0.766626,-3.0887 2.078696,-2.9822 3.046836,-0.035 1.063255,3.2367 2.131614,1.5 2.911725,0.01 1.349213,-2.5779 2.471887,-0.7852 2.728405,0.046 0.159768,0.5179 1.491471,2.3443 2.530553,-0.096 0.453735,-1.0657 1.993663,-1.469 2.464989,0.066 0.284316,0.926 1.670982,0.9915 2.398875,0.052 1.029975,-1.3297 2.699252,-0.1538 2.624045,-0.038 -24.162,-0.026 -49.191165,-0.054 -69.95864837,-0.078 z"
       id="path3039"
       inkscape:connector-curvature="0"
       sodipodi:nodetypes="ccccccccccccccsssssssccc" />
  </g>
</svg>
